<svg xmlns="http://www.w3.org/2000/svg" fill="none" viewBox="0 0 48 48"><path fill="#FFB039" d="M18.765 3.164c-.14.09-.321.287-.404.443-.123.221-.239.303-.61.418-2.297.706-4.521 2.518-5.732 4.667-.56 1-1.194 2.896-1.194 3.585 0 .188-.066.262-.33.402-1.252.64-1.779 2.19-1.202 3.56.14.344.708.967 1.079 1.197l.263.164.05 1.165c.065 1.714.453 2.993 1.334 4.486.47.796 1.326 1.927 1.763 2.338l.255.246-.75.262c-4.604 1.64-8.047 5.48-9.661 10.794-.791 2.608-.832 4.24-.124 5.094.321.385.741.656 1.318.845.387.13.865.147 3.855.18 3.591.033 3.756.016 4.003-.344.066-.09.123-.32.123-.51 0-.376-.255-.73-.593-.811-.098-.017-1.672-.05-3.484-.057-2.965-.025-3.32-.041-3.558-.173-.148-.074-.313-.221-.363-.32-.362-.672.454-3.88 1.54-6.102 1.352-2.756 3.27-4.79 5.906-6.258l.47-.263v.607c0 1.485.659 3.052 1.952 4.66.486.606.783.778 1.195.688.271-.066.444-.23 4.019-3.707l.947-.927 2.38 2.297c2.496 2.403 2.62 2.493 3.114 2.304.42-.156 1.573-1.714 2.051-2.756.33-.738.56-1.698.585-2.469.025-.77-.074-.746.93-.172.734.419 1.953 1.329 2.422 1.805l.363.369-.527.164c-.289.09-.734.189-.98.221-.528.074-.866.222-.99.443-.04.09-.081.64-.081 1.23 0 2.806.74 5.225 2.355 7.694l.437.68-6.952.017-6.96.025-.222.23c-.182.18-.231.303-.231.598 0 .32.041.41.272.615l.263.238h15.205l.363.378c.543.557 1.244 1.074 1.828 1.345.602.287 1.368.328 1.96.123 1.912-.673 4.852-4.47 5.923-7.645.428-1.287.585-2.23.642-3.764.025-.771.025-1.501-.008-1.624-.074-.304-.37-.46-1.12-.59-1.73-.304-3.583-1.313-5.288-2.888-.601-.55-.667-.59-1.013-.59-.354 0-.412.032-1.129.705-.42.385-1.062.902-1.416 1.14l-.651.451-.75-.722a14.583 14.583 0 0 0-5.255-3.272l-.634-.23.535-.615c1.384-1.6 2.39-3.576 2.67-5.266.04-.287.082-.927.082-1.427v-.91l.411-.263c1.582-1.017 1.631-3.363.1-4.478-.215-.156-.429-.287-.487-.287-.057 0-.123-.14-.156-.312-.33-1.879-.75-2.961-1.68-4.356-1.17-1.738-3.221-3.272-5.165-3.88-.255-.073-.379-.171-.445-.327-.05-.131-.222-.345-.379-.476L22.924 3h-1.952c-1.804 0-1.968.016-2.207.164Zm3.18 1.903c.007 1.115.172 3.757.288 4.536.115.738.337 1.747.584 2.559l.05.188h-3.88l.107-.311c.445-1.263.7-3.076.766-5.455l.05-1.944h2.034v.427Zm-3.79 1.493c0 1.903-.337 3.978-.881 5.438l-.132.352h-4.596l.058-.311c.164-.902.741-2.248 1.359-3.15.774-1.132 2.001-2.173 3.31-2.813.421-.205.783-.37.825-.37.033 0 .057.386.057.854Zm6.367-.435c1.755.87 3.048 2.182 3.888 3.937.338.73.7 1.82.7 2.14 0 .14-.132.148-2.2.132l-2.19-.025-.206-.574c-.445-1.287-.684-2.747-.799-4.946-.041-.721-.033-1 .041-1 .05 0 .396.147.766.336Zm5.832 8.07c.305.165.568.575.568.903 0 .353-.288.771-.617.91-.24.099-1.664.115-9.481.115-10.329 0-9.571.05-9.925-.615-.181-.344-.19-.385-.074-.713.082-.222.222-.41.403-.534l.28-.188h9.3c8.236 0 9.323.016 9.546.123Zm-1.096 4.692c-.049 1.19-.197 1.78-.733 2.847-1.4 2.813-4.134 5.052-6.82 5.585-.84.172-1.458.123-2.421-.18-1.392-.435-2.57-1.148-3.79-2.313-2.05-1.96-3.104-4.093-3.104-6.291v-.69H29.29l-.033 1.043Zm-13.129 8.67c.7.46 1.598.902 2.306 1.14l.56.189-3.245 3.1-.197-.238c-.305-.377-.84-1.5-.98-2.05-.124-.5-.165-1.977-.058-2.14.049-.083.733-.329.972-.354.049-.008.337.156.642.353Zm10.757-.156c.272.09.288.123.363.583.14 1.025-.231 2.411-.94 3.494l-.362.541-3.237-3.141.709-.255c.84-.295 1.326-.54 2.108-1.05.61-.401.676-.41 1.36-.172Zm12.05 3.503c.42.303 1.113.738 1.54.96.742.385 2.373.992 2.67.992.107 0 .131.098.131.566 0 2.264-.955 4.806-2.66 7.12-1.038 1.393-2.2 2.517-2.85 2.739-.206.073-.313.057-.626-.099-1.12-.558-2.982-2.821-4.02-4.88-.799-1.583-1.186-2.97-1.268-4.552l-.05-.861.486-.107c1.376-.304 3.37-1.37 4.77-2.534l.486-.41.32.254c.174.147.66.508 1.072.812Z"/><path fill="#FFB039" d="M39.34 34.62c-.14.114-.683.688-1.21 1.27-.528.591-.997 1.067-1.038 1.067-.041 0-.264-.148-.495-.328-.617-.484-1.235-.451-1.515.082-.305.59-.148.853 1.054 1.755.643.476.774.541 1.087.541.289 0 .42-.049.61-.23.428-.401 2.702-2.928 2.792-3.108.453-.837-.56-1.657-1.285-1.05ZM15.273 41.41c-.28.14-.52.649-.454.96.066.32.478.656.791.656.305 0 .7-.197.816-.402.214-.41.033-1-.371-1.197-.33-.148-.51-.156-.782-.017Z"/></svg>