<svg xmlns="http://www.w3.org/2000/svg" fill="none" viewBox="0 0 48 48"><path fill="#FFB039" d="M18.163 3.638V8.37l.324.319c.314.31.343.32 1.142.32h.819v2.534l-.257.056c-2.523.573-5.007 1.718-6.768 3.117l-.419.328-.733-.723c-.428-.422-.857-.75-1.037-.797-.857-.245-1.685.582-1.438 1.417.048.178.372.591.771.986.619.62.667.685.543.854-.076.094-.41.516-.752.939-1.809 2.206-3.037 5.04-3.484 8.036-.219 1.454-.143 4.402.152 5.735 1.314 6.065 5.56 10.805 11.385 12.711 2.122.704 2.817.798 5.463.798 2.066 0 2.447-.019 3.332-.206 6.958-1.493 12.041-6.487 13.516-13.303.295-1.333.372-4.28.153-5.735-.448-3.005-1.666-5.82-3.484-8.036-.343-.423-.676-.845-.752-.939-.124-.169-.076-.235.542-.854.4-.395.724-.808.772-.986.247-.836-.581-1.662-1.438-1.418-.18.047-.609.376-1.037.798l-.733.723-.42-.328c-1.75-1.39-4.368-2.6-6.757-3.117l-.267-.056V9.008h.819c.8 0 .828-.01 1.142-.32l.324-.318V3.638L28.938 3H18.811l-.648.638Zm9.138 3.117h-6.853V5.253H27.3v1.502Zm-2.284 4.506h-2.285V9.008h2.285v2.253Zm.161 2.385c2.352.14 5.083 1.126 7.235 2.619 1.075.741 2.77 2.412 3.522 3.473 3.16 4.422 3.588 10.223 1.123 14.992-.752 1.446-1.542 2.507-2.76 3.708-1.22 1.202-2.295 1.98-3.76 2.722-2.39 1.202-4.931 1.709-7.71 1.53-2.618-.159-5.274-1.098-7.492-2.637-1.075-.742-2.77-2.413-3.522-3.474a15.185 15.185 0 0 1-2.522-6.017c-.162-.967-.181-1.39-.143-2.873.076-2.44.485-4.046 1.552-6.111.742-1.436 1.542-2.506 2.75-3.699.581-.572 1.419-1.295 1.885-1.614 1.666-1.155 3.827-2.075 5.75-2.432.847-.16 2.54-.3 2.979-.263.133.02.637.047 1.113.075Z"/><path fill="#FFB039" d="M21.733 15.908c-1.79.319-3.608 1.051-5.074 2.037-.932.629-2.493 2.168-3.122 3.079-1.513 2.178-2.227 4.468-2.227 7.135 0 2.666.714 4.956 2.227 7.134.628.91 2.19 2.45 3.122 3.08 1.124.76 2.742 1.483 4.046 1.82 1.485.376 3.74.47 5.273.216 2.59-.422 4.864-1.577 6.758-3.426 1.095-1.08 1.742-1.962 2.428-3.333.913-1.811 1.275-3.37 1.275-5.491 0-2.122-.362-3.68-1.275-5.492-.686-1.37-1.333-2.253-2.428-3.333-1.875-1.83-4.13-2.985-6.663-3.417-1.075-.178-3.37-.188-4.34-.01Zm1 7.472v5.267l.646.638h10.68l-.038.207c-.028.122-.095.469-.161.779-.524 2.713-2.532 5.341-5.14 6.75-2.551 1.38-5.788 1.577-8.52.535-3.255-1.24-5.71-4.15-6.358-7.52-.21-1.07-.19-2.835.028-3.896.714-3.38 3.151-6.186 6.454-7.425.514-.198 1.942-.554 2.342-.592.038-.01.066 2.357.066 5.257Zm3.283-5.069c3.741.704 7.12 4.037 7.844 7.735.066.31.133.657.161.77l.038.216h-9.042v-8.918l.219.037c.114.029.466.094.78.16Z"/></svg>