<svg xmlns="http://www.w3.org/2000/svg" fill="none" viewBox="0 0 48 49"><path fill="#FFB039" d="m8.29 4.774-.29.28v12.37c0 11.027.017 12.449.133 13.105.705 3.868 3.997 7.72 9.495 11.112a37.962 37.962 0 0 0 4.22 2.282c1.692.79 1.61.79 3.525-.125 3.54-1.696 6.443-3.595 8.773-5.76 2.571-2.383 4.014-4.617 4.628-7.165l.19-.781.025-12.386c.025-9.275.009-12.432-.066-12.596a1.224 1.224 0 0 0-.34-.415l-.249-.195H8.59l-.299.274Zm28.568 22.583v.992c0 1.25-.116 2.016-.431 2.907-.622 1.75-1.8 3.462-3.417 4.97l-.63.586-22.307-21.02V6.454h4.602l22.183 20.903Zm0-11.917c0 4.938-.008 8.986-.025 8.986-.008 0-4.312-4.047-9.553-8.986l-9.536-8.986h19.114v8.986Zm-6.12 22.747c-.033.024-.373.274-.763.555-1.484 1.055-3.64 2.305-5.44 3.165l-1.078.516-1.078-.524c-6.402-3.15-10.78-7.127-11.924-10.846-.34-1.118-.382-1.852-.382-7.306v-5.142l10.366 9.767c5.697 5.369 10.332 9.784 10.3 9.815Z"/></svg>