<svg width="137" height="21" viewBox="0 0 137 21" fill="none" xmlns="http://www.w3.org/2000/svg">
<path d="M10.6289 21C8.4361 21 6.5428 20.5613 4.94898 19.684C3.3653 18.8067 2.14202 17.5793 1.27912 16.002C0.426373 14.4247 0 12.5907 0 10.5C0 8.40933 0.426373 6.57533 1.27912 4.998C2.14202 3.42067 3.3653 2.19333 4.94898 1.316C6.5428 0.438667 8.4361 0 10.6289 0C13.1465 0 15.2581 0.574 16.9636 1.722C18.6792 2.87 19.8873 4.424 20.5877 6.384L16.4154 7.448C16.0093 6.22533 15.3241 5.278 14.3596 4.606C13.3952 3.92467 12.1516 3.584 10.6289 3.584C9.23809 3.584 8.07571 3.86867 7.14175 4.438C6.21794 5.00733 5.52255 5.81 5.05557 6.846C4.58859 7.882 4.3551 9.1 4.3551 10.5C4.3551 11.9 4.58859 13.118 5.05557 14.154C5.52255 15.19 6.21794 15.9927 7.14175 16.562C8.07571 17.1313 9.23809 17.416 10.6289 17.416C12.1516 17.416 13.3952 17.0753 14.3596 16.394C15.3241 15.7127 16.0093 14.7653 16.4154 13.552L20.5877 14.616C19.8873 16.576 18.6792 18.13 16.9636 19.278C15.2581 20.426 13.1465 21 10.6289 21Z" fill="#E7E8E8"/>
<path d="M28.509 21C27.3314 21 26.3314 20.7947 25.5091 20.384C24.697 19.964 24.0777 19.4087 23.6513 18.718C23.2351 18.018 23.027 17.248 23.027 16.408C23.027 15.708 23.1438 15.0687 23.3772 14.49C23.6107 13.9113 23.9864 13.4027 24.5041 12.964C25.032 12.516 25.7375 12.1427 26.6207 11.844C27.2298 11.6387 27.9557 11.4567 28.7983 11.298C29.6409 11.1393 30.5951 10.99 31.6611 10.85C32.727 10.7007 33.8995 10.5373 35.1786 10.36L33.6863 11.116C33.6863 10.22 33.4529 9.562 32.9859 9.142C32.5189 8.722 31.7372 8.512 30.6408 8.512C30.0317 8.512 29.3972 8.64733 28.7374 8.918C28.0775 9.18867 27.6156 9.66933 27.3517 10.36L23.6057 9.268C24.0219 8.01733 24.8036 7 25.9507 6.216C27.0979 5.432 28.6612 5.04 30.6408 5.04C32.0925 5.04 33.3818 5.24533 34.5086 5.656C35.6355 6.06667 36.4882 6.776 37.0669 7.784C37.3917 8.344 37.5846 8.904 37.6455 9.464C37.7064 10.024 37.7369 10.6493 37.7369 11.34V20.58H34.1127V17.472L34.6305 18.116C33.8285 19.1333 32.9605 19.8707 32.0265 20.328C31.1027 20.776 29.9302 21 28.509 21ZM29.3922 18.004C30.1535 18.004 30.7931 17.8827 31.3108 17.64C31.8387 17.388 32.2549 17.1033 32.5595 16.786C32.8742 16.4687 33.0874 16.2027 33.1991 15.988C33.4122 15.5773 33.5341 15.1013 33.5645 14.56C33.6051 14.0093 33.6254 13.552 33.6254 13.188L34.8436 13.468C33.6153 13.6547 32.6204 13.8133 31.859 13.944C31.0976 14.0653 30.4835 14.1773 30.0165 14.28C29.5495 14.3827 29.1384 14.4947 28.783 14.616C28.377 14.7653 28.047 14.9287 27.7933 15.106C27.5496 15.274 27.3669 15.4607 27.2451 15.666C27.1334 15.8713 27.0776 16.1 27.0776 16.352C27.0776 16.6973 27.1689 16.996 27.3517 17.248C27.5445 17.4907 27.8136 17.6773 28.1587 17.808C28.5039 17.9387 28.915 18.004 29.3922 18.004Z" fill="#E7E8E8"/>
<path d="M41.6659 20.58V5.46H45.8078V11.228H52.5688V5.46H56.7107V20.58H52.5688V14.784H45.8078V20.58H41.6659Z" fill="#E7E8E8"/>
<path d="M60.9688 20.58V0.42H70.2271C70.4403 0.42 70.7246 0.429333 71.0799 0.447999C71.4454 0.457333 71.7702 0.485333 72.0545 0.532C73.364 0.718666 74.435 1.11533 75.2675 1.722C76.1101 2.32867 76.7293 3.094 77.1253 4.018C77.5212 4.93267 77.7191 5.95467 77.7191 7.084C77.7191 8.21333 77.5161 9.24 77.11 10.164C76.7141 11.0787 76.0949 11.8393 75.2523 12.446C74.4198 13.0527 73.3539 13.4493 72.0545 13.636C71.7702 13.6733 71.4454 13.7013 71.0799 13.72C70.7144 13.7387 70.4302 13.748 70.2271 13.748H65.1107V20.58H60.9688ZM65.1107 10.192H70.0444C70.2576 10.192 70.4911 10.1827 70.7449 10.164C70.9987 10.1453 71.2322 10.108 71.4454 10.052C72.0037 9.912 72.4352 9.67867 72.7397 9.352C73.0443 9.016 73.2524 8.64733 73.364 8.246C73.4859 7.83533 73.5468 7.448 73.5468 7.084C73.5468 6.72 73.4859 6.33733 73.364 5.936C73.2524 5.52533 73.0443 5.15667 72.7397 4.83C72.4352 4.494 72.0037 4.256 71.4454 4.116C71.2322 4.06 70.9987 4.02267 70.7449 4.004C70.4911 3.98533 70.2576 3.976 70.0444 3.976H65.1107V10.192Z" fill="#E7E8E8"/>
<path d="M88.4208 21C86.7356 21 85.2484 20.6687 83.9591 20.006C82.68 19.334 81.675 18.4147 80.9441 17.248C80.2233 16.072 79.8629 14.728 79.8629 13.216C79.8629 11.564 80.2182 10.1267 80.9288 8.904C81.6395 7.68133 82.6191 6.734 83.8678 6.062C85.1164 5.38067 86.5529 5.04 88.1772 5.04C89.903 5.04 91.3699 5.41333 92.578 6.16C93.786 6.90667 94.6794 7.95667 95.258 9.31C95.8367 10.6633 96.0397 12.2547 95.8671 14.084H91.7709V12.684C91.7709 11.144 91.5019 10.038 90.9638 9.366C90.4359 8.68467 89.568 8.344 88.3599 8.344C86.9488 8.344 85.9083 8.74067 85.2382 9.534C84.5784 10.318 84.2485 11.48 84.2485 13.02C84.2485 14.4293 84.5784 15.5213 85.2382 16.296C85.9083 17.0613 86.8879 17.444 88.1772 17.444C88.9893 17.444 89.6847 17.2807 90.2634 16.954C90.842 16.6273 91.2836 16.156 91.5882 15.54L95.7301 16.632C95.1108 18.0133 94.1312 19.0867 92.7911 19.852C91.4613 20.6173 90.0045 21 88.4208 21ZM82.9693 14.084V11.256H93.8723V14.084H82.9693Z" fill="#E7E8E8"/>
<path d="M98.8289 20.58V5.46H102.179L107.905 15.26L113.63 5.46H116.98V20.58H113.021V13.048L108.635 20.58H107.174L102.788 13.048V20.58H98.8289Z" fill="#E7E8E8"/>
<path d="M128.655 21C127.001 21 125.549 20.6593 124.3 19.978C123.052 19.2967 122.077 18.3587 121.376 17.164C120.686 15.96 120.341 14.5787 120.341 13.02C120.341 11.4427 120.696 10.0567 121.407 8.862C122.118 7.658 123.097 6.72 124.346 6.048C125.595 5.376 127.031 5.04 128.655 5.04C130.31 5.04 131.762 5.38067 133.01 6.062C134.269 6.74333 135.249 7.686 135.949 8.89C136.65 10.0847 137 11.4613 137 13.02C137 14.588 136.645 15.974 135.934 17.178C135.234 18.3727 134.254 19.3107 132.995 19.992C131.746 20.664 130.3 21 128.655 21ZM128.655 17.444C129.985 17.444 130.975 17.0333 131.625 16.212C132.285 15.3813 132.614 14.3173 132.614 13.02C132.614 11.676 132.279 10.6027 131.609 9.8C130.95 8.99733 129.965 8.596 128.655 8.596C127.752 8.596 127.011 8.78267 126.432 9.156C125.853 9.52933 125.422 10.0473 125.138 10.71C124.864 11.3727 124.727 12.1427 124.727 13.02C124.727 14.3733 125.056 15.4513 125.716 16.254C126.386 17.0473 127.366 17.444 128.655 17.444Z" fill="#E7E8E8"/>
</svg>
