<svg width="181" height="31" viewBox="0 0 181 31" fill="none" xmlns="http://www.w3.org/2000/svg">
<path d="M14.1602 30.6001C11.2802 30.6001 8.79353 29.9734 6.7002 28.7201C4.6202 27.4668 3.01353 25.7134 1.8802 23.4601C0.760195 21.2068 0.200195 18.5868 0.200195 15.6001C0.200195 12.6134 0.760195 9.99343 1.8802 7.7401C3.01353 5.48676 4.6202 3.73343 6.7002 2.4801C8.79353 1.22676 11.2802 0.600098 14.1602 0.600098C17.4669 0.600098 20.2402 1.4201 22.4802 3.0601C24.7335 4.7001 26.3202 6.9201 27.2402 9.7201L21.7602 11.2401C21.2269 9.49343 20.3269 8.1401 19.0602 7.1801C17.7935 6.20676 16.1602 5.7201 14.1602 5.7201C12.3335 5.7201 10.8069 6.12676 9.5802 6.9401C8.36686 7.75343 7.45353 8.9001 6.8402 10.3801C6.22686 11.8601 5.9202 13.6001 5.9202 15.6001C5.9202 17.6001 6.22686 19.3401 6.8402 20.8201C7.45353 22.3001 8.36686 23.4468 9.5802 24.2601C10.8069 25.0734 12.3335 25.4801 14.1602 25.4801C16.1602 25.4801 17.7935 24.9934 19.0602 24.0201C20.3269 23.0468 21.2269 21.6934 21.7602 19.9601L27.2402 21.4801C26.3202 24.2801 24.7335 26.5001 22.4802 28.1401C20.2402 29.7801 17.4669 30.6001 14.1602 30.6001Z" fill="#0F1115"/>
<path d="M37.6439 30.6001C36.0973 30.6001 34.7839 30.3068 33.7039 29.7201C32.6373 29.1201 31.8239 28.3268 31.2639 27.3401C30.7173 26.3401 30.4439 25.2401 30.4439 24.0401C30.4439 23.0401 30.5973 22.1268 30.9039 21.3001C31.2106 20.4734 31.7039 19.7468 32.3839 19.1201C33.0773 18.4801 34.0039 17.9468 35.1639 17.5201C35.9639 17.2268 36.9173 16.9668 38.0239 16.7401C39.1306 16.5134 40.3839 16.3001 41.7839 16.1001C43.1839 15.8868 44.7239 15.6534 46.4039 15.4001L44.4439 16.4801C44.4439 15.2001 44.1373 14.2601 43.5239 13.6601C42.9106 13.0601 41.8839 12.7601 40.4439 12.7601C39.6439 12.7601 38.8106 12.9534 37.9439 13.3401C37.0773 13.7268 36.4706 14.4134 36.1239 15.4001L31.2039 13.8401C31.7506 12.0534 32.7773 10.6001 34.2839 9.4801C35.7906 8.3601 37.8439 7.8001 40.4439 7.8001C42.3506 7.8001 44.0439 8.09343 45.5239 8.6801C47.0039 9.26676 48.1239 10.2801 48.8839 11.7201C49.3106 12.5201 49.5639 13.3201 49.6439 14.1201C49.7239 14.9201 49.7639 15.8134 49.7639 16.8001V30.0001H45.0039V25.5601L45.6839 26.4801C44.6306 27.9334 43.4906 28.9868 42.2639 29.6401C41.0506 30.2801 39.5106 30.6001 37.6439 30.6001ZM38.8039 26.3201C39.8039 26.3201 40.6439 26.1468 41.3239 25.8001C42.0173 25.4401 42.5639 25.0334 42.9639 24.5801C43.3773 24.1268 43.6573 23.7468 43.8039 23.4401C44.0839 22.8534 44.2439 22.1734 44.2839 21.4001C44.3373 20.6134 44.3639 19.9601 44.3639 19.4401L45.9639 19.8401C44.3506 20.1068 43.0439 20.3334 42.0439 20.5201C41.0439 20.6934 40.2373 20.8534 39.6239 21.0001C39.0106 21.1468 38.4706 21.3068 38.0039 21.4801C37.4706 21.6934 37.0373 21.9268 36.7039 22.1801C36.3839 22.4201 36.1439 22.6868 35.9839 22.9801C35.8373 23.2734 35.7639 23.6001 35.7639 23.9601C35.7639 24.4534 35.8839 24.8801 36.1239 25.2401C36.3773 25.5868 36.7306 25.8534 37.1839 26.0401C37.6373 26.2268 38.1773 26.3201 38.8039 26.3201Z" fill="#0F1115"/>
<path d="M54.9243 30.0001V8.4001H60.3643V16.6401H69.2443V8.4001H74.6843V30.0001H69.2443V21.7201H60.3643V30.0001H54.9243Z" fill="#0F1115"/>
<path d="M80.2768 30.0001V1.2001H92.4368C92.7168 1.2001 93.0901 1.21343 93.5568 1.2401C94.0368 1.25343 94.4634 1.29343 94.8368 1.3601C96.5568 1.62676 97.9634 2.19343 99.0568 3.0601C100.163 3.92676 100.977 5.0201 101.497 6.3401C102.017 7.64676 102.277 9.10676 102.277 10.7201C102.277 12.3334 102.01 13.8001 101.477 15.1201C100.957 16.4268 100.143 17.5134 99.0368 18.3801C97.9434 19.2468 96.5434 19.8134 94.8368 20.0801C94.4634 20.1334 94.0368 20.1734 93.5568 20.2001C93.0768 20.2268 92.7034 20.2401 92.4368 20.2401H85.7168V30.0001H80.2768ZM85.7168 15.1601H92.1968C92.4768 15.1601 92.7834 15.1468 93.1168 15.1201C93.4501 15.0934 93.7568 15.0401 94.0368 14.9601C94.7701 14.7601 95.3368 14.4268 95.7368 13.9601C96.1368 13.4801 96.4101 12.9534 96.5568 12.3801C96.7168 11.7934 96.7968 11.2401 96.7968 10.7201C96.7968 10.2001 96.7168 9.65343 96.5568 9.0801C96.4101 8.49343 96.1368 7.96676 95.7368 7.5001C95.3368 7.0201 94.7701 6.6801 94.0368 6.4801C93.7568 6.4001 93.4501 6.34676 93.1168 6.3201C92.7834 6.29343 92.4768 6.2801 92.1968 6.2801H85.7168V15.1601Z" fill="#FF5050"/>
<path d="M116.332 30.6001C114.119 30.6001 112.166 30.1268 110.472 29.1801C108.792 28.2201 107.472 26.9068 106.512 25.2401C105.566 23.5601 105.092 21.6401 105.092 19.4801C105.092 17.1201 105.559 15.0668 106.492 13.3201C107.426 11.5734 108.712 10.2201 110.352 9.2601C111.992 8.28676 113.879 7.8001 116.012 7.8001C118.279 7.8001 120.206 8.33343 121.792 9.4001C123.379 10.4668 124.552 11.9668 125.312 13.9001C126.072 15.8334 126.339 18.1068 126.112 20.7201H120.732V18.7201C120.732 16.5201 120.379 14.9401 119.672 13.9801C118.979 13.0068 117.839 12.5201 116.252 12.5201C114.399 12.5201 113.032 13.0868 112.152 14.2201C111.286 15.3401 110.852 17.0001 110.852 19.2001C110.852 21.2134 111.286 22.7734 112.152 23.8801C113.032 24.9734 114.319 25.5201 116.012 25.5201C117.079 25.5201 117.992 25.2868 118.752 24.8201C119.512 24.3534 120.092 23.6801 120.492 22.8001L125.932 24.3601C125.119 26.3334 123.832 27.8668 122.072 28.9601C120.326 30.0534 118.412 30.6001 116.332 30.6001ZM109.172 20.7201V16.6801H123.492V20.7201H109.172Z" fill="#FF5050"/>
<path d="M130.002 30.0001V8.4001H134.402L141.922 22.4001L149.442 8.4001H153.842V30.0001H148.642V19.2401L142.882 30.0001H140.962L135.202 19.2401V30.0001H130.002Z" fill="#FF5050"/>
<path d="M169.176 30.6001C167.003 30.6001 165.096 30.1134 163.456 29.1401C161.816 28.1668 160.536 26.8268 159.616 25.1201C158.71 23.4001 158.256 21.4268 158.256 19.2001C158.256 16.9468 158.723 14.9668 159.656 13.2601C160.59 11.5401 161.876 10.2001 163.516 9.2401C165.156 8.2801 167.043 7.8001 169.176 7.8001C171.35 7.8001 173.256 8.28676 174.896 9.2601C176.55 10.2334 177.836 11.5801 178.756 13.3001C179.676 15.0068 180.136 16.9734 180.136 19.2001C180.136 21.4401 179.67 23.4201 178.736 25.1401C177.816 26.8468 176.53 28.1868 174.876 29.1601C173.236 30.1201 171.336 30.6001 169.176 30.6001ZM169.176 25.5201C170.923 25.5201 172.223 24.9334 173.076 23.7601C173.943 22.5734 174.376 21.0534 174.376 19.2001C174.376 17.2801 173.936 15.7468 173.056 14.6001C172.19 13.4534 170.896 12.8801 169.176 12.8801C167.99 12.8801 167.016 13.1468 166.256 13.6801C165.496 14.2134 164.93 14.9534 164.556 15.9001C164.196 16.8468 164.016 17.9468 164.016 19.2001C164.016 21.1334 164.45 22.6734 165.316 23.8201C166.196 24.9534 167.483 25.5201 169.176 25.5201Z" fill="#FF5050"/>
</svg>
