<svg xmlns="http://www.w3.org/2000/svg" fill="none" viewBox="0 0 13 12"><path fill="#FFB039" d="m6.077.06-.124.064-.87 1.752a77.708 77.708 0 0 1-.902 1.782c-.013.017-.878.152-1.92.301-2.112.304-2.093.301-2.2.517-.078.15-.08.254-.011.4.035.078.47.514 1.434 1.451.873.848 1.382 1.36 1.385 1.395.002.03-.141.887-.315 1.904a70.805 70.805 0 0 0-.318 1.942c0 .133.094.296.207.368.083.052.127.058.27.05.164-.014.269-.064 1.88-.915l1.706-.898 1.708.895c.936.495 1.752.91 1.81.92.276.064.544-.14.544-.414 0-.055-.143-.934-.318-1.95-.174-1.02-.317-1.874-.317-1.896 0-.025.627-.658 1.395-1.404 1.424-1.39 1.479-1.45 1.479-1.65a.585.585 0 0 0-.06-.198c-.111-.218-.09-.213-2.22-.52-1.048-.151-1.91-.284-1.915-.298-.006-.014-.404-.815-.885-1.78L6.644.125 6.52.061A.607.607 0 0 0 6.299 0a.607.607 0 0 0-.222.06Z"/></svg>